<?xml version="1.0" encoding="utf-8"?>
<!-- Generator: Adobe Illustrator 18.0.0, SVG Export Plug-In . SVG Version: 6.00 Build 0)  -->
<!DOCTYPE svg PUBLIC "-//W3C//DTD SVG 1.0//EN" "http://www.w3.org/TR/2001/REC-SVG-20010904/DTD/svg10.dtd">
<svg version="1.0" id="Слой_1" xmlns="http://www.w3.org/2000/svg" xmlns:xlink="http://www.w3.org/1999/xlink" x="0px" y="0px"
	 width="22px" height="22px" viewBox="0 0 22 22" enable-background="new 0 0 22 22" xml:space="preserve">
<g>
	<path d="M11,9.7c0,0.5,0,0.9,0,1.4c-0.2-0.1-0.4-0.1-0.6-0.2c-0.9-0.5-1.8-1-2.8-1.6C7.6,9.2,7.4,9.2,7.3,9.1c0,0.9,0.1,1.8,0,2.7
		c-0.1,1.1,0.2,1.8,1.3,2.3c0.8,0.4,1.6,0.9,2.4,1.4c0-1.5,0-3,0-4.4c0.3-0.1,0.6-0.2,0.8-0.4c2.6-1.5,5.3-3,7.9-4.5
		C19.8,6.1,20,6,20.2,5.9c0,0.2,0,0.3,0,0.4c0,3.3,0,6.6,0,9.9c0,0.5-0.2,0.7-0.6,1c-2.7,1.5-5.4,3.1-8.1,4.6
		c-0.4,0.2-0.8,0.2-1.2,0c-2.7-1.5-5.4-3.1-8-4.6c-0.4-0.3-0.6-0.6-0.6-1.1c0-3.5,0-6.9,0-10.4c0-0.5,0.2-0.8,0.6-1
		c2.8-1.5,5.5-3.1,8.2-4.7C10.8,0,11.1,0,11.3,0.1c2.7,1.5,5.4,3.1,8.1,4.6c0,0,0.1,0.1,0.2,0.1c-0.2,0.1-0.3,0.2-0.4,0.3
		c-2.6,1.5-5.2,3-7.8,4.4C11.2,9.6,11.1,9.6,11,9.7c0-1.2,0-2.3,0-3.6C9.9,6.7,8.9,7.3,7.9,8c0.8,0.5,1.6,0.9,2.4,1.3
		C10.5,9.4,10.7,9.5,11,9.7z M10.9,20.7c0-0.1,0.1-0.1,0.1-0.2c0-0.8-0.1-1.6,0-2.4c0.1-1-0.2-1.5-1.1-2c-0.9-0.4-1.7-1-2.6-1.5
		c0,1.3,0,2.6,0,3.8c0,0.1,0.1,0.2,0.2,0.3C8.6,19.4,9.7,20.1,10.9,20.7z M6.1,12.5c0-1.4,0-2.7,0-4C6,8.4,6,8.3,5.9,8.3
		C5,7.7,4,7.2,3,6.6c0,1.4,0,2.7,0,4c0,0.1,0.1,0.2,0.1,0.2C4.1,11.3,5,11.9,6.1,12.5z M3,12.1c0,1.4,0,2.6,0,3.8
		c0,0.1,0.1,0.3,0.3,0.4c0.5,0.3,1.1,0.6,1.6,0.9c0.4,0.2,0.8,0.4,1.2,0.7c0-1.3,0-2.5,0-3.8c0-0.1-0.1-0.3-0.2-0.3
		C4.9,13.3,4,12.7,3,12.1z M3.6,5.5c1,0.5,1.8,1,2.7,1.6C6.6,7.2,6.8,7.2,7,7c0.5-0.4,1.1-0.7,1.7-1c0.3-0.2,0.6-0.4,1-0.6
		c-1-0.5-1.9-1-2.8-1.5c-0.1-0.1-0.3,0-0.4,0C5.5,4.4,4.6,4.9,3.6,5.5z M10.9,4.6c0-1.1,0-2.2,0-3.3C9.9,1.9,9,2.4,8,3
		C9,3.6,9.9,4.1,10.9,4.6z"/>
</g>
</svg>
