<?xml version="1.0" encoding="utf-8"?>
<!-- Generator: Adobe Illustrator 18.0.0, SVG Export Plug-In . SVG Version: 6.00 Build 0)  -->
<!DOCTYPE svg PUBLIC "-//W3C//DTD SVG 1.0//EN" "http://www.w3.org/TR/2001/REC-SVG-20010904/DTD/svg10.dtd">
<svg version="1.0" id="Слой_1" xmlns="http://www.w3.org/2000/svg" xmlns:xlink="http://www.w3.org/1999/xlink" x="0px" y="0px"
	 width="22px" height="22px" viewBox="0 0 22 22" enable-background="new 0 0 22 22" xml:space="preserve">
<g>
	<path fill="#D9D9D9" d="M7.5,3L7.5,3C7.5,3,7.5,3,7.5,3C7.3,3,7.2,3,7,3c0,0,0,0,0,0C7.2,3,7.3,3,7.5,3L7.5,3z"/>
	<path fill="#A0A0A0" d="M19.7,14.8c-0.1,0.2,0,0.3,0,0.5c0,0.1,0,0.2,0,0.4c-0.2-0.2-0.3-0.3-0.5-0.4c-0.4-0.2-0.9-0.5-1.3-0.7
		c-0.5-0.3-1-0.5-1.6-0.6c-1-0.2-2-0.2-3-0.2c-0.3,0-0.6,0-0.9,0c-0.3,0-0.5,0.2-0.4,0.6c0,0.1,0.1,0.2,0.1,0.3
		c0.3,0.3,0.6,0.5,1,0.5c0.7,0,1.5,0.2,2.2,0.3c0.2,0,0.3,0.1,0.5,0.2c0,0-0.1,0-0.1,0c-0.7,0.2-1.4,0.5-2.1,0.7
		c-0.5,0.2-1.1,0.3-1.7,0.3c-1,0-1.9-0.2-2.8-0.6c-0.3-0.1-0.5-0.3-0.8-0.3c-0.3-0.1-0.5,0-0.8,0.1c-0.4,0.2-0.5,0.7-0.2,1.1
		c0.1,0.1,0.2,0.2,0.3,0.2c1.5,1.2,3.3,1.8,5.2,1.9c1.1,0,2.2-0.2,3.3-0.3c0.9-0.1,1.7-0.3,2.6-0.3c0.4,0,0.7,0,1-0.2
		c0,0.1,0,0.3,0,0.4C19.6,17.3,19.7,16.1,19.7,14.8z"/>
	<path fill="#A0A0A0" d="M11,8.6c-0.2-0.6-0.5-1-1.1-1.2C9.2,7.2,8.7,6.8,8.1,6.3C7.9,6.2,7.9,5.9,7.9,5.7C8,5.4,8.2,5.2,8.5,5.2
		c0.4-0.1,0.8,0,1.1,0.2c0.3,0.2,0.6,0.4,1,0.5C11.1,6,11.7,6,12.3,6c0.1,0,0.2,0,0.2-0.1c0-0.1,0-0.1-0.1-0.2
		c-0.6-0.5-1.2-1-1.7-1.6c-0.2-0.2-0.5-0.4-0.8-0.5c-0.5-0.1-1-0.3-1.5-0.4C8.1,3.1,7.8,3,7.5,3h0C7.3,3,7.2,3,7,3
		C6.8,3,6.6,3.1,6.4,3.1c-0.5,0.1-1,0.3-1.6,0.5c-0.5,0.1-1,0.3-1.6,0.2c-0.3,0-0.4,0-0.4,0.4c0,0,0,0.1,0,0.1c0,0.8,0,1.6,0,2.4
		c0,0.4,0.1,0.5,0.5,0.5c0.1,0,0.1,0,0.2,0c0.4,0,0.8,0.1,1.2,0.3c0.2,0.1,0.4,0.2,0.6,0.3c1.7,0.7,3.4,1,5.2,1.5
		C10.9,9.3,11.2,9,11,8.6z"/>
	<path fill="#A0A0A0" d="M10.4,6.7c0,0-0.1,0-0.1,0.1c0,0.1,0,0.1,0.1,0.1c0.3,0.3,0.6,0.4,1,0.4c2.2,0,4.4,0,6.6,0
		c0.3,0,0.5,0.1,0.5,0.4c0,1.3,0,2.6,0,3.9c0,0.4-0.1,0.5-0.5,0.5c-1.7,0-3.4,0-5.2,0c-1.2,0-2.4,0-3.6,0c-0.3,0-0.4-0.1-0.4-0.4
		c0-0.7,0-1.5,0-2.2c0-0.1,0-0.2,0-0.2c0-0.1-0.2-0.2-0.4-0.2C8.3,8.9,8.2,9,8.3,9.2c0,0.5,0,0.9,0,1.4c0,0.5,0,0.9,0,1.4
		c0,0.5,0.1,0.6,0.6,0.6c0,0,0,0,0.1,0c1.6,0,3.1,0,4.7,0c1.5,0,2.9,0,4.4,0c0.2,0,0.4,0,0.6,0c0.3,0,0.4-0.1,0.4-0.4
		c0-0.1,0-0.1,0-0.2c0-0.7,0-1.3,0-2c0-0.9,0-1.8,0-2.7c0-0.5-0.1-0.6-0.6-0.6c-2.6,0-5.2,0-7.7,0C10.6,6.7,10.5,6.7,10.4,6.7z"/>
	<path fill="#353535" d="M2.6,3.6c0-0.3-0.1-0.4-0.4-0.4c-0.2,0-0.4,0-0.6,0c-0.4,0-0.9,0-1.3,0c-0.1,0-0.2,0-0.3,0.2
		c0,0.2,0,0.4,0,0.5c0,0.8,0,1.6,0,2.3c0,0.4,0,0.9,0,1.3c0,0.2,0.1,0.3,0.3,0.4c0.6,0,1.2,0,1.8,0c0.3,0,0.4-0.1,0.4-0.4
		c0-0.2,0-0.4,0-0.5c0-0.6,0-1.3,0-1.9C2.6,4.6,2.6,4.1,2.6,3.6z"/>
	<path fill="#353535" d="M22,15.2c0-0.1,0-0.3,0-0.4c0-0.2-0.1-0.2-0.2-0.2c-0.1,0-0.2,0-0.4,0c-0.4,0-0.9,0-1.3,0
		c-0.3,0-0.3,0.1-0.4,0.3c0,1.3,0,2.5,0,3.8c0,0.2,0.1,0.3,0.3,0.3c0.3,0,0.6,0,1,0c0.2,0,0.5,0,0.7,0c0.2,0,0.3-0.1,0.3-0.3
		c0,0,0-0.1,0-0.1C22,17.4,22,16.3,22,15.2z"/>
	<path fill="#434343" d="M13.7,10.5c-0.1-0.1-0.2-0.2-0.2-0.3c0-0.1-0.1-0.1-0.2-0.1c-0.2,0-0.4,0.1-0.6,0.1c-0.1,0-0.1,0-0.1,0.2
		c0.1,0.5,0.5,0.7,0.9,0.8c0.1,0,0.2,0,0.3,0.1c0.1,0.1,0,0.2,0,0.3c0,0,0,0.1,0.1,0.1c0.2,0.1,0.3,0,0.3-0.2c0,0,0-0.1,0-0.1
		c0-0.1,0-0.1,0.1-0.1c0.1,0,0.2,0,0.3-0.1c0.4-0.1,0.8-0.5,0.8-0.9c0-0.5-0.2-0.8-0.7-1c-0.1-0.1-0.3-0.1-0.5-0.2
		c-0.1,0-0.1-0.1-0.1-0.1c0-0.2,0-0.3,0-0.5c0.1,0,0.2,0.1,0.2,0.2c0,0.1,0.1,0.1,0.2,0.1c0.1,0,0.3,0,0.4-0.1
		c0.3-0.1,0.4-0.1,0.2-0.4c0,0,0,0,0,0c-0.2-0.3-0.5-0.4-0.8-0.4c-0.1,0-0.1,0-0.1-0.1c0-0.1,0-0.1-0.1-0.1c0,0-0.1,0-0.1,0
		c-0.1,0-0.1,0-0.1,0.1c0,0.1,0,0.1-0.1,0.1c-0.2,0-0.3,0.1-0.5,0.1c-0.4,0.2-0.5,0.5-0.5,0.9c0,0.4,0.2,0.6,0.6,0.8
		c0.1,0.1,0.3,0.1,0.4,0.1c0.1,0,0.1,0.1,0.1,0.1C13.8,10.1,13.8,10.3,13.7,10.5C13.8,10.5,13.8,10.5,13.7,10.5z"/>
</g>
</svg>
